<svg viewBox="0 0 2055 664" xmlns="http://www.w3.org/2000/svg"><g clip-path="url(#clip0_5399_31953)"><path fill-rule="evenodd" clip-rule="evenodd" d="M677.999 304.238L722.101 313.516C771.006 323.606 794.771 348.72 794.771 390.296C794.771 412.583 786.435 431.558 770.653 445.181C753.208 460.257 728.042 467.9 695.888 467.9C599.767 467.9 585.372 412.936 585.372 380.219V370.365H632.955V377.903C632.955 406.471 643.503 423.026 697.433 423.026C738.224 423.026 746.429 411.091 746.429 391.84C746.429 367.617 736.287 361.885 701.424 354.779L657.296 345.88C609.438 336.719 586.144 312.365 586.144 271.443C586.144 235.834 612.356 194.231 686.204 194.231C720.688 194.231 747.359 203.261 765.484 221.059C781.358 236.685 789.746 258.395 789.746 283.875V291.727H742.163V284.202C742.163 257.113 732.453 239.079 685.04 239.079C640.506 239.079 634.499 254.456 634.499 269.493C634.499 290.288 642.22 296.386 677.999 304.238ZM863.293 290.104C874.822 271.377 896.795 261.182 926.226 261.182C980.929 261.182 1013.5 299.892 1013.49 364.671C1013.49 429.267 981.871 467.821 928.922 467.821C901.702 467.821 879.219 457.875 866.774 440.77V523.086H818.798V265.056H863.293V290.104ZM916.163 425.721C951.876 425.721 965.146 409.219 965.146 364.724C965.146 341.377 961.508 326.092 953.708 316.617C946.262 307.561 934.301 303.347 916.163 303.347C882.936 303.347 866.787 317.716 866.787 347.305V381.763C866.787 411.326 882.936 425.721 916.163 425.721ZM1085.9 263.907H1037.54V464.015H1085.9V263.907ZM1085.52 236.077H1037.58L1037.18 202.157C1037.18 201.11 1037.54 200.096 1038.19 199.281C1038.85 198.467 1039.77 197.902 1040.79 197.681H1085.52V236.077ZM1270.89 283.473C1254.76 268.895 1232.63 261.226 1206.9 261.226C1176.71 261.226 1151.52 271.146 1134.04 289.899C1117.03 308.22 1108 334.08 1108 364.768C1108 395.456 1116.78 421.197 1133.39 439.453C1150.56 458.324 1175.44 468.244 1205.37 468.244C1258.58 468.244 1295.74 435.056 1295.74 387.538V380.786H1247.77V386.387C1247.77 412.56 1234.68 423.762 1204.19 423.762C1170.4 423.762 1155.98 406.095 1155.98 364.702C1155.98 323.034 1170.37 305.263 1204.19 305.263C1234.73 305.263 1247.77 316.557 1247.77 343.018V348.619H1295.73V341.866C1295.73 318.349 1287.16 298.13 1270.89 283.473ZM1452.94 392.808H1500.92V399.6C1500.92 420.002 1492.27 437.276 1475.89 449.552C1459.88 461.526 1437.49 467.873 1411.31 467.873C1349.94 467.873 1314.73 430.131 1314.73 364.331C1314.73 301.672 1352.49 261.182 1410.92 261.182C1466.52 261.182 1502.46 295.286 1502.46 348.078C1502.46 361.649 1500.44 374.709 1499.41 377.68H1360.57C1362.88 411.522 1376.92 424.164 1411.69 424.164C1452.94 424.164 1452.94 405.358 1452.94 399.181V392.808ZM1410.15 302.955C1379.13 302.955 1364.33 315.047 1361.1 343.262L1456.12 343.288C1456.24 330.528 1453.18 321.041 1446.79 314.497C1439.4 306.881 1427.07 302.955 1410.15 302.955ZM1669.63 197.681L1565.91 463.995H1615.56L1642.06 396.193H1759.59L1786.09 463.995H1837.3L1733.56 197.681H1669.63ZM1658.9 353.164L1684.8 287.731L1701.03 241.927L1716.91 287.731L1742.77 353.164H1658.9ZM1855.85 197.703H1903.17V464.017H1855.85V197.703Z" fill="white"></path><path d="M489.729 239.442H456.457C451.277 239.445 446.148 238.417 441.362 236.417C436.577 234.418 432.229 231.485 428.567 227.788C424.905 224.092 422.001 219.704 420.019 214.875C418.038 210.045 417.018 204.87 417.019 199.643V166.054C417.019 164.207 416.658 162.379 415.958 160.673C415.257 158.967 414.23 157.417 412.936 156.112C411.641 154.807 410.105 153.772 408.414 153.066C406.722 152.361 404.91 151.998 403.08 152H353.688C351.902 151.998 350.133 152.352 348.483 153.041C346.833 153.73 345.333 154.741 344.071 156.015C342.808 157.289 341.806 158.802 341.124 160.468C340.441 162.133 340.091 163.918 340.092 165.72V215.763C340.091 217.584 340.444 219.387 341.134 221.069C341.823 222.752 342.834 224.281 344.109 225.569C345.385 226.857 346.899 227.879 348.565 228.576C350.232 229.273 352.018 229.632 353.823 229.632H387.303C397.763 229.631 407.794 233.823 415.193 241.285C422.587 248.751 426.741 258.875 426.741 269.431V303.119C426.741 306.823 428.199 310.376 430.794 312.995C433.39 315.614 436.911 317.086 440.581 317.086H489.888C493.544 317.083 497.049 315.615 499.632 313.005C502.216 310.395 503.668 306.857 503.668 303.168V253.558C503.672 251.707 503.315 249.873 502.617 248.162C501.919 246.45 500.893 244.894 499.599 243.583C498.304 242.272 496.766 241.232 495.072 240.521C493.379 239.81 491.563 239.444 489.729 239.442Z" fill="white"></path><path d="M490.06 343.87H440.471C436.826 343.87 433.331 345.332 430.753 347.932C428.176 350.533 426.728 354.061 426.728 357.739V391.526C426.726 402.081 422.573 412.204 415.18 419.671C407.782 427.133 397.75 431.325 387.29 431.325H353.982C350.314 431.325 346.797 432.795 344.204 435.412C341.61 438.03 340.153 441.579 340.153 445.28V495.051C340.153 498.739 341.605 502.276 344.189 504.884C346.773 507.491 350.278 508.956 353.933 508.956H403.019C404.851 508.956 406.665 508.592 408.358 507.885C410.05 507.177 411.588 506.14 412.884 504.833C414.179 503.526 415.207 501.974 415.908 500.265C416.609 498.557 416.97 496.727 416.97 494.878V461.301C416.973 450.746 421.126 440.623 428.518 433.156C435.916 425.694 445.948 421.502 456.408 421.502H489.692C493.385 421.502 496.928 420.021 499.54 417.386C502.151 414.75 503.619 411.175 503.619 407.448V357.59C503.619 353.958 502.191 350.474 499.649 347.902C497.108 345.33 493.659 343.88 490.06 343.87Z" fill="white"></path><path d="M299.845 431.276H266.365C255.909 431.275 245.881 427.083 238.487 419.621C234.823 415.926 231.916 411.539 229.933 406.709C227.949 401.88 226.928 396.704 226.927 391.476V357.776C226.927 354.075 225.47 350.525 222.877 347.908C220.283 345.291 216.766 343.821 213.098 343.821H163.779C161.97 343.821 160.178 344.181 158.506 344.879C156.834 345.578 155.315 346.603 154.036 347.894C152.756 349.185 151.741 350.718 151.049 352.405C150.356 354.092 150 355.9 150 357.727V407.374C150 409.222 150.361 411.053 151.062 412.761C151.763 414.47 152.791 416.022 154.086 417.329C155.382 418.636 156.92 419.673 158.612 420.381C160.305 421.088 162.119 421.452 163.951 421.452H197.223C207.682 421.455 217.713 425.647 225.113 433.107C232.505 440.574 236.658 450.697 236.661 461.252V494.803C236.664 498.53 238.132 502.103 240.743 504.738C243.354 507.373 246.895 508.854 250.587 508.858H300.041C303.646 508.854 307.102 507.408 309.651 504.835C312.2 502.263 313.633 498.775 313.637 495.138V445.082C313.62 441.406 312.159 437.887 309.573 435.298C306.987 432.709 303.488 431.262 299.845 431.276Z" fill="white"></path><path d="M163.594 317.086H213.195C214.999 317.086 216.786 316.727 218.452 316.03C220.119 315.333 221.633 314.311 222.908 313.023C224.184 311.735 225.195 310.206 225.884 308.524C226.573 306.841 226.927 305.038 226.926 303.218V269.431C226.925 264.203 227.946 259.026 229.929 254.197C231.913 249.367 234.821 244.98 238.486 241.285C245.88 233.824 255.907 229.632 266.364 229.632H299.758C303.425 229.632 306.943 228.161 309.536 225.544C312.129 222.927 313.586 219.378 313.586 215.676V165.906C313.586 162.218 312.135 158.681 309.55 156.073C306.966 153.465 303.462 152 299.807 152H250.611C248.779 151.998 246.965 152.361 245.273 153.067C243.58 153.773 242.042 154.809 240.746 156.116C239.451 157.422 238.423 158.973 237.722 160.681C237.02 162.388 236.659 164.218 236.659 166.066V199.643C236.66 204.87 235.641 210.045 233.659 214.875C231.678 219.704 228.773 224.092 225.111 227.788C221.449 231.484 217.101 234.416 212.315 236.416C207.53 238.415 202.401 239.444 197.221 239.442H163.962C160.267 239.445 156.725 240.929 154.114 243.566C151.502 246.204 150.035 249.78 150.035 253.509V303.354C150.035 306.987 151.462 310.472 154.004 313.046C156.545 315.62 159.994 317.073 163.594 317.086Z" fill="white"></path><path d="M360.169 275.75H296.563C283.344 275.75 272.627 286.565 272.627 299.906V364.094C272.627 377.435 283.344 388.25 296.563 388.25H360.169C373.389 388.25 384.106 377.435 384.106 364.094V299.906C384.106 286.565 373.389 275.75 360.169 275.75Z" fill="white"></path></g><defs><clipPath id="clip0_5399_31953"><rect width="1755" height="360" fill="white" transform="translate(150 152)"></rect></clipPath></defs></svg>