<svg width="664" height="664" viewBox="0 0 664 664" fill="none" xmlns="http://www.w3.org/2000/svg">
<rect width="664" height="664" fill="black"/>
<path d="M498.645 146C505.978 146 509.645 149.667 509.645 157V204.5C509.645 211.833 505.978 215.5 498.645 215.5H248.145C238.478 215.5 231.645 218 227.645 223C223.645 228 221.645 234.833 221.645 243.5V260.5C221.645 279.167 230.311 288.5 247.645 288.5H435.145C464.145 288.5 485.978 296 500.645 311C515.311 325.667 522.645 346.833 522.645 374.5V414.5C522.645 438.833 515.478 458.5 501.145 473.5C486.811 488.5 464.478 496 434.145 496H157.145C149.478 496 145.645 492.333 145.645 485V437.5C145.645 430.167 149.478 426.5 157.145 426.5H419.645C429.311 426.5 436.145 424 440.145 419C444.145 414 446.145 407.167 446.145 398.5V378C446.145 359.333 437.478 350 420.145 350H232.645C203.645 350 181.811 342.667 167.145 328C152.478 313 145.145 291.667 145.145 264V227.5C145.145 203.167 152.311 183.5 166.645 168.5C180.978 153.5 203.311 146 233.645 146H498.645Z" fill="white"/>
</svg>
